<?xml version="1.0" encoding="utf-8"?>
<!-- Generator: Adobe Illustrator 16.0.0, SVG Export Plug-In . SVG Version: 6.00 Build 0)  -->
<!DOCTYPE svg PUBLIC "-//W3C//DTD SVG 1.1//EN" "http://www.w3.org/Graphics/SVG/1.1/DTD/svg11.dtd">
<svg version="1.1" id="图层_1" xmlns="http://www.w3.org/2000/svg" xmlns:xlink="http://www.w3.org/1999/xlink" x="0px" y="0px"
	 width="560px" height="560px" viewBox="3.465 3.465 560 560" enable-background="new 3.465 3.465 560 560" xml:space="preserve">
<g>
	
		<linearGradient id="SVGID_1_" gradientUnits="userSpaceOnUse" x1="511.9705" y1="-454.6797" x2="721.2722" y2="-454.6797" gradientTransform="matrix(1 0 0 1 -508.5059 544.6846)">
		<stop  offset="0" style="stop-color:#11E6F0"/>
		<stop  offset="0.4303" style="stop-color:#00CBD6"/>
		<stop  offset="0.7818" style="stop-color:#00B1BB"/>
		<stop  offset="0.897" style="stop-color:#00C0CD"/>
		<stop  offset="1" style="stop-color:#03CDCD"/>
	</linearGradient>
	<polygon fill="url(#SVGID_1_)" points="170.324,55.47 3.465,55.47 45.901,124.54 212.766,124.54 	"/>
	
		<linearGradient id="SVGID_2_" gradientUnits="userSpaceOnUse" x1="717.863" y1="15.1826" x2="1084.5968" y2="-561.2708" gradientTransform="matrix(1 0 0 1 -508.5059 544.6846)">
		<stop  offset="0" style="stop-color:#11E6F0"/>
		<stop  offset="0.4303" style="stop-color:#00CBD6"/>
		<stop  offset="0.7818" style="stop-color:#00B1BB"/>
		<stop  offset="0.897" style="stop-color:#00C0CD"/>
		<stop  offset="1" style="stop-color:#03CDCD"/>
	</linearGradient>
	<polygon fill="url(#SVGID_2_)" points="442.958,124.54 412.348,174.35 364.817,251.715 327.855,311.991 281.445,387.569 
		244.426,447.833 283.502,511.46 320.523,451.2 366.935,375.606 403.881,315.34 451.42,237.961 521.094,124.54 	"/>
	
		<linearGradient id="SVGID_3_" gradientUnits="userSpaceOnUse" x1="678.8298" y1="-397.8965" x2="827.9587" y2="-397.8965" gradientTransform="matrix(1 0 0 1 -508.5059 544.6846)">
		<stop  offset="0" style="stop-color:#11E6F0"/>
		<stop  offset="0.4303" style="stop-color:#00CBD6"/>
		<stop  offset="0.7818" style="stop-color:#00B1BB"/>
		<stop  offset="0.897" style="stop-color:#00C0CD"/>
		<stop  offset="1" style="stop-color:#03CDCD"/>
	</linearGradient>
	<polygon fill="url(#SVGID_3_)" points="286.739,124.54 244.295,55.47 170.324,55.47 212.766,124.54 282.502,238.106 
		319.453,177.84 	"/>
	
		<linearGradient id="SVGID_4_" gradientUnits="userSpaceOnUse" x1="439.5027" y1="-169.7524" x2="762.5889" y2="-303.6322" gradientTransform="matrix(1 0 0 1 -508.5059 544.6846)">
		<stop  offset="0" style="stop-color:#11E6F0"/>
		<stop  offset="0.4303" style="stop-color:#00CBD6"/>
		<stop  offset="0.7818" style="stop-color:#00B1BB"/>
		<stop  offset="0.897" style="stop-color:#00C0CD"/>
		<stop  offset="1" style="stop-color:#03CDCD"/>
	</linearGradient>
	<polygon fill="url(#SVGID_4_)" points="236.105,313.694 119.948,124.54 45.901,124.54 199.082,373.964 244.426,447.833 
		281.445,387.569 	"/>
	
		<linearGradient id="SVGID_5_" gradientUnits="userSpaceOnUse" x1="847.8728" y1="-454.6797" x2="1071.9705" y2="-454.6797" gradientTransform="matrix(1 0 0 1 -508.5059 544.6846)">
		<stop  offset="0" style="stop-color:#11E6F0"/>
		<stop  offset="0.4303" style="stop-color:#00CBD6"/>
		<stop  offset="0.7818" style="stop-color:#00B1BB"/>
		<stop  offset="0.897" style="stop-color:#00C0CD"/>
		<stop  offset="1" style="stop-color:#03CDCD"/>
	</linearGradient>
	<polygon fill="url(#SVGID_5_)" points="394.625,55.47 339.367,55.47 366.996,100.462 381.737,124.54 521.094,124.54 563.465,55.47 
			"/>
</g>
</svg>
