<?xml version="1.0" encoding="utf-8"?>
<!-- Generator: Adobe Illustrator 16.0.0, SVG Export Plug-In . SVG Version: 6.00 Build 0)  -->
<!DOCTYPE svg PUBLIC "-//W3C//DTD SVG 1.1//EN" "http://www.w3.org/Graphics/SVG/1.1/DTD/svg11.dtd">
<svg version="1.1" id="图层_1" xmlns="http://www.w3.org/2000/svg" xmlns:xlink="http://www.w3.org/1999/xlink" x="0px" y="0px"
	 width="560px" height="560px" viewBox="0 0 560 560" enable-background="new 0 0 560 560" xml:space="preserve">
<g>
	
		<linearGradient id="SVGID_1_" gradientUnits="userSpaceOnUse" x1="1047.1702" y1="-173.7598" x2="1256.4709" y2="-173.7598" gradientTransform="matrix(1 0 0 1 -1043.7051 263.7646)">
		<stop  offset="0" style="stop-color:#A35E0C"/>
		<stop  offset="0.4303" style="stop-color:#894D00"/>
		<stop  offset="0.7818" style="stop-color:#6E3E00"/>
		<stop  offset="0.897" style="stop-color:#804800"/>
		<stop  offset="1" style="stop-color:#7D4102"/>
	</linearGradient>
	<polygon fill="url(#SVGID_1_)" points="170.324,55.47 3.465,55.47 45.901,124.54 212.766,124.54 	"/>
	
		<linearGradient id="SVGID_2_" gradientUnits="userSpaceOnUse" x1="1253.0618" y1="296.1025" x2="1619.7954" y2="-280.3506" gradientTransform="matrix(1 0 0 1 -1043.7051 263.7646)">
		<stop  offset="0" style="stop-color:#A35E0C"/>
		<stop  offset="0.4303" style="stop-color:#894D00"/>
		<stop  offset="0.7818" style="stop-color:#6E3E00"/>
		<stop  offset="0.897" style="stop-color:#804800"/>
		<stop  offset="1" style="stop-color:#7D4102"/>
	</linearGradient>
	<polygon fill="url(#SVGID_2_)" points="442.956,124.54 412.348,174.35 364.817,251.715 327.855,311.991 281.445,387.568 
		244.426,447.833 283.502,511.46 320.523,451.2 366.935,375.605 403.881,315.34 451.42,237.961 521.094,124.54 	"/>
	
		<linearGradient id="SVGID_3_" gradientUnits="userSpaceOnUse" x1="1214.0295" y1="-116.9766" x2="1363.1565" y2="-116.9766" gradientTransform="matrix(1 0 0 1 -1043.7051 263.7646)">
		<stop  offset="0" style="stop-color:#A35E0C"/>
		<stop  offset="0.4303" style="stop-color:#894D00"/>
		<stop  offset="0.7818" style="stop-color:#6E3E00"/>
		<stop  offset="0.897" style="stop-color:#804800"/>
		<stop  offset="1" style="stop-color:#7D4102"/>
	</linearGradient>
	<polygon fill="url(#SVGID_3_)" points="286.739,124.54 244.295,55.47 170.324,55.47 212.766,124.54 282.502,238.106 
		319.451,177.84 	"/>
	
		<linearGradient id="SVGID_4_" gradientUnits="userSpaceOnUse" x1="974.6985" y1="111.1685" x2="1297.7888" y2="-22.713" gradientTransform="matrix(1 0 0 1 -1043.7051 263.7646)">
		<stop  offset="0" style="stop-color:#A35E0C"/>
		<stop  offset="0.4303" style="stop-color:#894D00"/>
		<stop  offset="0.7818" style="stop-color:#6E3E00"/>
		<stop  offset="0.897" style="stop-color:#804800"/>
		<stop  offset="1" style="stop-color:#7D4102"/>
	</linearGradient>
	<polygon fill="url(#SVGID_4_)" points="236.105,313.693 119.948,124.54 45.901,124.54 199.082,373.964 244.426,447.833 
		281.445,387.568 	"/>
	
		<linearGradient id="SVGID_5_" gradientUnits="userSpaceOnUse" x1="1383.0706" y1="-173.7598" x2="1607.1702" y2="-173.7598" gradientTransform="matrix(1 0 0 1 -1043.7051 263.7646)">
		<stop  offset="0" style="stop-color:#A35E0C"/>
		<stop  offset="0.4303" style="stop-color:#894D00"/>
		<stop  offset="0.7818" style="stop-color:#6E3E00"/>
		<stop  offset="0.897" style="stop-color:#804800"/>
		<stop  offset="1" style="stop-color:#7D4102"/>
	</linearGradient>
	<polygon fill="url(#SVGID_5_)" points="394.625,55.47 339.365,55.47 366.994,100.462 381.737,124.54 521.094,124.54 563.465,55.47 
			"/>
</g>
</svg>
