<?xml version='1.0' encoding='utf-8'?>
<svg xmlns="http://www.w3.org/2000/svg" version="1.1" id="Contours" x="0px" y="0px" width="409.807495" height="454.236176" mViewBox="0.000000 0.000000 409.807495 454.236176" stroke="black" fill="none" stroke-linecap="round" stroke-linejoin="round"> <desc> </desc> <path d="M394.0 198.0 C394.2 194.1 394.5 190.2 394.7 186.3 C403.2 207.9 407.9 231.0 408.5 254.2 C409.8 304.4 392.3 355.4 404.6 404.1 C409.0 421.7 392.7 438.1 375.7 444.8 C351.9 454.2 325.2 453.0 300.1 448.4 C274.9 443.8 250.3 436.1 224.9 433.1 C203.6 430.5 180.2 430.6 163.3 417.4 C147.4 404.9 139.2 382.0 119.7 376.7 C106.7 373.2 93.7 369.7 80.7 366.2 C75.5 364.8 70.2 363.4 65.8 360.3 C60.4 356.4 57.0 350.6 53.8 344.8 C38.3 316.8 25.4 287.4 15.4 257.0 C8.3 235.4 2.6 213.2 1.9 190.4 C0.0 128.4 37.9 68.7 91.3 37.0 C144.8 5.4 211.3 0.0 271.7 14.7 C296.5 20.8 318.3 36.1 335.8 54.8 C353.2 73.5 366.7 95.5 379.6 117.6 C391.2 137.5 402.5 162.2 391.8 182.6 C390.6 177.7 389.3 172.8 388.1 167.9 C388.1 175.4 388.1 182.9 388.1 190.4 C384.6 186.4 383.1 180.6 384.3 175.4 C378.7 179.7 372.3 182.9 365.6 184.9 C368.9 188.7 374.3 190.6 379.3 189.8 C377.6 187.7 375.0 186.4 372.3 186.1 C377.9 183.2 385.8 188.2 385.5 194.5 C381.7 194.7 377.8 195.0 373.9 195.2 C376.7 196.9 379.6 198.7 382.8 198.7 C386.0 198.7 389.4 196.0 388.9 192.8 C390.0 195.0 391.8 196.9 394.0 198.0 M254.5 212.7 C253.3 210.5 252.2 208.3 251.0 206.0 C250.8 207.7 250.6 209.3 250.4 210.9 C249.7 210.2 249.5 209.2 249.8 208.3 C248.5 208.2 247.2 207.7 246.2 206.9 C245.7 207.9 246.0 209.2 246.9 209.9 C243.6 210.4 240.5 212.1 238.5 214.8 C237.9 214.2 237.4 213.7 236.9 213.2 C237.4 213.8 236.6 214.7 235.8 214.7 C235.0 214.7 234.4 214.2 233.8 213.6 C231.6 211.5 229.3 209.3 227.0 207.2 C227.8 206.4 226.9 204.8 225.8 205.0 C225.4 207.8 225.4 210.6 225.8 213.4 C224.7 213.4 223.6 213.0 222.7 212.4 C222.9 210.9 222.8 209.3 222.2 207.9 C220.8 209.8 220.3 212.3 220.8 214.6 C226.1 214.8 231.5 215.0 236.9 215.2 C239.3 215.3 241.9 215.4 244.2 214.5 C246.4 213.6 248.4 211.4 248.2 208.9 C248.3 210.8 248.8 212.7 249.8 214.3 C249.9 212.8 251.0 211.4 252.4 211.0 C252.3 212.1 253.5 213.0 254.5 212.7 M102.9 362.9 C101.8 363.3 100.9 364.0 100.2 364.9 C99.2 363.6 98.2 362.2 97.2 360.9 C96.9 361.9 96.6 362.9 96.2 363.8 C94.1 362.6 91.9 361.5 89.8 360.3 C91.1 359.6 92.0 357.9 91.7 356.4 C90.9 355.6 89.3 355.5 88.6 356.4 C87.9 357.4 88.8 359.0 89.9 358.8 C87.6 359.6 85.1 359.8 82.6 359.3 C96.4 365.5 110.8 370.1 125.6 373.0 C124.8 371.6 123.9 370.2 123.0 368.8 C122.8 370.4 120.3 370.3 119.1 369.3 C117.9 368.3 116.8 366.7 115.2 366.7 C114.8 365.8 114.5 364.8 114.1 363.9 C111.8 367.9 104.5 367.3 102.9 362.9 M237.8 430.6 C257.4 433.3 277.2 436.0 295.9 442.4 C302.5 444.6 310.7 447.0 315.7 442.1 C315.6 441.4 315.5 440.7 315.4 440.1 C313.0 440.2 310.6 441.3 308.8 443.0 C303.0 440.4 296.6 438.9 290.2 438.6 C290.4 435.9 286.5 435.1 283.7 435.4 C283.1 435.5 282.2 435.9 282.4 436.5 C277.9 435.3 273.4 434.1 268.8 432.9 C263.8 433.0 258.8 432.0 254.2 430.0 C253.5 430.6 252.9 431.2 252.3 431.9 C251.0 431.2 249.5 429.9 250.2 428.7 C247.9 429.1 245.6 429.5 243.2 429.9 C242.9 427.9 242.5 425.9 242.1 423.9 C242.8 426.8 240.7 430.0 237.8 430.6 M260.9 187.1 C271.3 189.5 282.2 189.8 292.8 188.2 C292.7 189.4 291.6 190.5 290.3 190.7 C292.7 192.3 295.3 193.4 298.1 194.0 C303.5 195.2 309.1 194.4 314.5 193.5 C329.4 191.2 344.3 188.9 359.2 186.6 C359.9 185.5 360.1 184.1 359.7 182.9 C342.2 183.7 324.9 185.8 307.8 189.4 C305.3 190.0 302.6 190.5 300.2 189.5 C302.0 187.7 304.2 186.4 306.6 185.6 C305.8 183.6 302.8 184.4 301.2 185.8 C299.6 187.2 297.4 188.9 295.7 187.7 C290.5 183.8 283.3 184.4 276.9 185.2 C271.5 185.8 266.2 186.4 260.9 187.1 M111.7 295.5 C116.3 308.5 120.9 321.4 125.5 334.3 C127.4 335.3 129.4 336.4 130.4 338.3 C131.6 340.7 130.8 343.5 131.3 346.0 C131.8 348.6 135.4 350.8 136.8 348.6 C137.5 347.1 138.1 345.5 138.7 344.0 C138.0 348.4 141.8 352.9 146.2 353.0 C144.4 362.5 141.6 371.8 138.0 380.8 C139.5 382.6 141.1 384.3 142.6 386.1 C142.8 372.9 148.3 360.5 153.1 348.3 C160.2 330.6 166.2 312.3 170.0 293.6 C170.4 291.4 170.7 288.8 169.3 287.0 C168.6 286.1 167.6 285.6 166.5 285.0 C149.7 276.2 132.8 267.5 115.9 258.7 C114.6 258.1 113.3 257.4 111.9 257.3 C108.7 257.1 105.8 260.6 106.6 263.7 C106.5 257.8 103.9 252.0 99.7 248.0 C98.1 254.0 100.2 260.9 104.9 265.0 C109.8 279.6 106.2 295.5 102.7 310.4 C101.1 317.1 99.5 323.7 97.9 330.3 C105.4 320.2 110.3 308.1 111.7 295.5 M69.7 131.2 C71.5 135.9 79.0 136.8 81.9 132.6 C82.5 134.3 83.1 135.9 83.7 137.6 C79.8 138.5 75.9 139.4 72.0 140.3 C67.1 155.5 64.2 171.4 63.2 187.4 C46.0 185.0 27.9 197.0 23.4 213.8 C28.4 206.3 33.8 198.8 41.6 194.4 C49.4 190.0 60.1 189.7 66.5 195.9 C55.3 192.0 41.5 197.1 35.6 207.4 C44.2 198.2 58.9 195.9 70.7 200.5 C82.4 205.1 91.3 215.7 95.5 227.6 C97.4 232.8 98.4 238.4 101.1 243.2 C103.8 248.1 108.7 252.2 114.2 251.9 C132.7 251.0 148.1 264.9 161.3 277.9 C156.8 272.7 152.3 267.6 147.8 262.4 C141.3 255.0 145.1 243.5 149.7 234.8 C154.4 226.1 159.7 215.7 155.2 206.9 C139.8 176.9 114.3 152.2 83.7 137.8 C118.6 145.7 142.0 177.7 160.5 208.4 C167.6 194.2 174.6 176.6 165.8 163.4 C149.7 138.9 134.9 113.6 121.3 87.7 C114.7 75.1 98.0 68.9 84.8 74.1 C87.0 74.8 89.2 75.5 91.4 76.2 C81.7 92.8 75.7 111.5 74.0 130.7 C72.8 131.5 71.1 131.7 69.7 131.2 M335.6 97.4 C333.8 92.9 331.3 87.8 326.6 86.4 C326.8 66.2 313.4 46.5 294.6 39.2 C302.2 47.8 309.9 56.3 317.6 64.9 C319.7 67.2 322.0 69.7 322.6 72.9 C323.3 76.0 321.7 79.8 318.6 80.4 C298.1 84.8 274.0 88.1 258.7 73.9 C246.2 62.3 231.7 53.0 216.1 46.4 C215.7 50.0 219.1 53.4 222.6 53.2 C221.1 55.3 219.6 57.3 218.1 59.4 C216.7 59.0 215.3 58.5 213.9 58.1 C211.3 60.8 208.7 63.6 206.1 66.3 C199.4 67.3 192.4 67.3 185.7 66.4 C182.9 66.0 179.3 64.2 180.1 61.5 C175.5 66.1 168.4 68.8 162.5 66.1 C156.6 63.5 154.4 54.1 159.7 50.4 C157.6 47.8 153.5 47.0 150.6 48.7 C150.7 45.2 152.4 41.8 155.1 39.6 C143.4 48.1 133.7 59.2 126.9 71.9 C125.4 74.8 124.0 77.8 124.1 81.0 C124.1 84.8 126.1 88.2 128.0 91.4 C143.3 117.0 158.6 142.5 173.9 168.1 C177.7 174.4 175.0 182.5 172.3 189.3 C165.9 204.9 159.6 220.5 153.3 236.1 C149.6 245.2 146.4 257.1 153.8 263.7 C177.5 284.7 199.4 307.6 219.5 332.0 C225.3 329.6 229.1 323.0 228.4 316.8 C227.7 310.5 222.5 305.0 216.3 303.9 C212.8 307.2 209.3 310.6 205.9 313.9 C203.8 307.9 210.5 301.6 216.9 302.0 C223.3 302.4 228.5 307.4 231.8 312.8 C233.7 318.9 231.8 326.0 227.2 330.3 C225.0 332.4 222.3 336.2 224.9 337.6 C227.7 335.3 230.4 333.1 233.1 330.8 C229.8 334.0 229.2 339.6 231.6 343.5 C234.1 347.4 239.5 349.2 243.8 347.6 C242.7 349.3 241.6 350.9 240.5 352.6 C244.4 356.7 248.3 360.8 252.1 365.0 C253.1 357.8 253.1 350.5 252.2 343.4 C247.7 345.6 242.2 345.4 237.8 343.0 C234.5 341.0 233.8 335.7 236.5 332.9 C238.1 334.1 238.8 336.3 238.1 338.2 C241.6 338.6 245.2 339.0 248.8 339.4 C249.1 331.5 245.0 324.2 241.0 317.4 C257.9 336.6 263.2 365.3 254.2 389.3 C251.6 396.4 248.3 405.6 254.0 410.5 C255.9 412.0 258.3 412.7 260.6 413.3 C267.1 415.1 273.6 416.9 280.2 418.7 C286.7 420.5 295.1 421.6 298.8 416.0 C296.9 420.1 295.0 424.3 293.2 428.4 C302.5 420.6 311.8 412.8 321.1 405.0 C320.7 406.6 317.8 405.6 317.9 403.9 C317.9 402.2 319.4 401.0 320.8 400.0 C323.8 398.0 326.8 395.9 329.8 393.9 C334.8 390.5 332.1 382.6 328.5 377.7 C324.8 372.9 320.5 366.5 323.7 361.3 C332.7 378.6 341.7 395.9 350.7 413.2 C351.6 415.1 352.6 417.0 354.4 418.0 C356.4 419.0 358.8 418.7 361.1 418.3 C369.8 416.8 378.5 415.2 387.3 413.7 C393.3 412.7 397.5 406.6 398.3 400.6 C399.2 394.5 397.5 388.4 395.9 382.5 C389.4 381.5 382.9 380.5 376.5 379.5 C383.1 378.1 389.8 376.7 396.5 375.3 C395.3 362.6 395.0 349.8 395.6 337.1 C373.0 338.6 350.6 341.8 328.6 346.7 C326.0 347.3 323.3 348.0 321.6 350.0 C319.9 352.0 320.1 355.7 322.6 356.6 C323.7 352.6 328.6 351.2 332.7 350.4 C350.4 347.4 368.0 344.4 385.7 341.3 C389.1 340.7 394.2 341.6 393.7 345.0 C377.4 346.5 361.2 348.9 345.1 352.3 C329.3 355.6 311.3 361.8 306.2 377.1 C303.6 384.6 293.0 384.3 285.3 382.5 C275.0 380.2 263.8 377.2 257.7 368.7 C263.9 365.7 271.0 369.0 277.2 371.8 C283.5 374.7 291.5 376.8 296.6 372.2 C301.2 367.9 306.0 363.5 308.7 357.9 C311.5 352.2 311.8 344.8 307.8 340.0 C299.5 329.9 291.3 319.7 283.0 309.6 C281.1 307.3 279.2 304.1 280.9 301.7 C295.2 314.6 306.9 330.3 315.3 347.7 C340.8 339.8 367.2 334.7 393.8 332.4 C397.0 332.1 398.0 328.1 398.3 324.9 C399.7 306.7 401.2 288.5 402.6 270.3 C401.3 281.0 400.0 291.8 395.5 301.6 C396.3 269.8 387.7 237.9 370.9 210.9 C371.6 206.0 371.5 200.8 369.3 196.4 C367.1 192.0 362.3 188.6 357.4 189.3 C343.6 191.3 329.8 193.4 316.1 195.4 C313.3 195.8 309.9 196.9 309.6 199.7 C309.0 205.9 301.7 208.7 295.6 210.1 C263.6 217.7 229.5 225.3 198.3 214.6 C202.1 213.2 204.3 208.6 202.9 204.9 C200.7 207.0 199.2 210.0 198.9 213.1 C197.2 212.8 195.5 212.5 193.8 212.2 C202.4 201.1 211.1 190.0 219.7 178.9 C221.3 176.9 223.4 174.7 225.9 175.0 C273.2 182.0 321.8 180.9 368.7 171.8 C373.0 171.0 378.6 168.0 377.0 163.9 C373.2 165.5 369.1 167.2 365.1 166.1 C361.1 165.0 358.3 159.6 361.1 156.6 C361.2 154.8 359.3 153.2 357.6 153.7 C361.5 150.8 360.2 143.5 355.5 142.2 C354.9 139.7 354.2 137.2 353.6 134.7 C350.6 131.4 347.6 128.0 344.6 124.7 C348.0 123.6 349.0 118.2 346.2 116.0 C345.9 117.8 345.7 119.5 345.4 121.3 C342.2 113.3 338.9 105.4 335.6 97.4 M60.2 282.5 C51.2 276.0 40.8 271.3 29.9 269.0 C29.6 285.0 36.4 301.1 48.2 312.0 C51.9 315.4 56.3 318.4 61.3 319.2 C73.2 321.0 83.2 309.3 86.2 297.6 C89.1 285.9 87.6 273.5 90.3 261.7 C91.8 266.6 93.3 271.4 94.8 276.2 C97.3 254.3 89.1 231.4 73.1 216.2 C70.1 213.4 66.7 210.7 62.6 210.0 C55.5 208.8 49.0 213.7 43.5 218.4 C39.6 221.7 35.5 225.4 34.5 230.5 C42.7 228.3 47.8 217.2 56.1 218.6 C58.6 219.0 60.7 220.6 62.6 222.2 C79.2 236.1 87.7 258.9 84.3 280.2 C81.9 281.4 79.3 282.2 76.7 282.4 C77.0 283.6 78.3 284.4 79.6 284.2 C78.1 285.2 76.0 285.2 74.5 284.2 C76.2 282.5 77.8 280.8 79.4 279.2 C75.0 280.7 70.1 280.4 65.9 278.5 C64.0 279.8 62.1 281.2 60.2 282.5 M190.1 316.8 C191.8 316.3 193.5 317.7 194.7 319.0 C199.9 324.3 205.1 329.7 210.3 335.0 C214.1 338.9 217.8 342.7 221.6 346.6 C225.0 350.1 228.6 353.8 230.7 358.2 C229.9 358.3 230.0 356.8 230.8 356.7 C231.6 356.5 232.3 357.1 232.8 357.7 C239.7 364.7 246.5 371.7 253.4 378.7 C254.2 372.6 249.2 367.4 244.7 363.3 C219.7 340.4 196.5 315.6 175.4 289.2 C175.2 300.2 173.6 311.3 170.6 321.9 C163.9 346.1 150.0 368.6 148.5 393.6 C161.5 363.5 171.7 332.3 179.2 300.4 C183.3 305.6 187.0 311.1 190.1 316.8 M262.4 210.0 C259.5 206.0 256.9 201.8 254.6 197.5 C255.4 196.3 257.3 197.3 258.2 198.5 C259.0 199.7 260.3 201.2 261.6 200.6 C265.8 198.6 270.8 198.5 275.0 200.2 C274.7 203.1 275.1 206.1 276.2 208.9 C277.3 206.2 277.4 203.1 276.6 200.4 C280.6 198.9 284.9 198.4 289.2 199.0 C290.6 200.7 290.0 203.4 288.5 205.0 C287.0 206.7 284.8 207.5 282.8 208.2 C286.2 209.7 290.5 209.1 293.4 206.6 C296.3 204.1 297.6 199.9 296.6 196.3 C287.2 193.8 277.2 194.2 267.5 194.7 C258.1 195.2 248.7 195.7 239.3 196.1 C238.8 196.9 238.3 197.6 237.8 198.4 C238.3 199.1 238.8 199.9 239.3 200.7 C243.3 201.6 247.5 201.5 251.4 200.3 C255.3 203.7 258.3 208.0 260.3 212.8 C265.3 213.5 270.5 212.6 274.9 210.2 C270.8 209.4 266.5 209.3 262.4 210.0 M239.0 32.0 C237.5 32.5 236.1 33.0 234.6 33.5 C234.8 35.3 237.2 35.6 239.0 35.4 C250.1 34.2 261.2 33.1 272.3 31.9 C257.9 24.0 240.1 22.6 224.6 28.0 C222.8 28.6 220.7 30.8 222.2 32.0 C227.6 30.1 233.6 30.1 239.0 32.0 M38.4 213.5 C41.4 212.7 43.7 210.3 46.3 208.6 C54.8 203.2 66.5 205.5 74.6 211.5 C82.7 217.4 88.0 226.3 93.1 235.0 C94.6 237.5 96.1 240.0 97.6 242.6 C98.2 236.6 95.1 231.0 91.9 226.0 C85.8 216.4 78.0 207.2 67.4 203.3 C56.7 199.5 42.7 203.1 38.4 213.5 M85.3 335.2 C89.5 333.8 93.8 330.6 93.8 326.2 C83.0 333.2 67.9 332.5 57.8 324.7 C54.7 322.2 51.5 318.9 47.5 319.2 C49.3 322.3 51.5 325.1 54.1 327.5 C62.3 335.1 74.6 338.6 85.3 335.2 M246.5 408.4 C247.3 407.3 247.8 405.5 246.7 404.6 C245.6 403.6 243.8 404.4 242.5 405.1 C232.4 410.3 220.2 403.5 208.9 405.1 C209.2 408.7 213.8 410.0 217.4 410.3 C222.4 410.8 227.4 411.3 232.5 411.8 C237.5 412.2 243.4 412.4 246.5 408.4 M169.1 49.6 C164.6 49.3 159.8 52.3 159.4 56.8 C159.0 60.8 163.0 64.6 167.1 64.1 C171.1 63.1 175.9 61.3 176.5 57.2 C177.1 53.2 173.0 49.9 169.1 49.6 M307.4 76.0 C299.8 71.0 289.7 74.2 280.6 74.2 C275.3 74.2 270.2 73.1 265.1 71.7 C267.7 75.6 272.2 77.8 276.8 78.5 C281.4 79.3 286.1 78.7 290.7 78.1 C296.3 77.4 301.9 76.7 307.4 76.0 M218.6 200.2 C218.9 199.7 218.8 199.0 218.6 198.5 C217.8 197.0 215.6 196.7 214.1 197.5 C212.6 198.2 211.6 199.7 210.8 201.2 C209.0 204.6 207.7 208.3 207.0 212.0 C207.8 214.3 211.1 214.7 213.1 213.3 C215.1 211.9 215.9 209.4 216.4 207.1 C216.9 204.7 217.3 202.2 218.6 200.2 M198.9 33.7 C207.3 30.3 215.8 27.0 224.2 23.6 C212.7 23.4 201.1 26.8 191.6 33.4 C193.2 35.5 196.4 34.7 198.9 33.7 M230.6 200.5 C231.5 200.0 232.4 199.5 233.3 198.9 C234.7 201.7 235.8 204.7 236.5 207.7 C238.9 208.1 241.4 208.5 243.8 208.9 C244.6 205.6 236.9 206.1 236.8 202.7 C236.8 199.4 234.3 196.4 231.1 195.9 C227.9 195.3 224.5 197.2 223.3 200.3 C224.9 201.0 226.6 201.2 228.3 200.9 C229.2 202.5 229.4 204.5 228.9 206.2 C231.0 205.7 231.1 202.7 230.6 200.5 M227.0 423.5 C224.4 425.8 220.2 426.2 217.1 424.5 C212.8 426.0 207.7 425.0 204.3 422.0 C203.6 421.4 202.8 422.7 202.1 423.3 C200.8 424.4 199.0 423.3 197.6 422.6 C196.1 421.8 193.7 421.7 193.5 423.3 C206.7 425.5 219.8 427.8 233.0 430.0 C234.5 429.1 234.6 426.8 233.2 425.8 C232.9 426.8 232.6 427.8 232.2 428.8 C230.8 428.6 229.2 428.3 228.1 427.4 C226.9 426.5 226.2 424.7 227.0 423.5 M280.9 46.4 C283.6 47.3 286.4 48.1 289.2 49.0 C290.6 47.7 288.3 45.6 286.4 45.1 C281.1 43.8 275.6 43.6 270.2 44.5 C269.3 45.2 270.9 46.3 272.1 46.4 C275.0 46.4 278.0 46.4 280.9 46.4 M71.3 347.9 C71.2 346.2 69.9 344.5 68.3 344.0 C67.1 346.3 66.9 349.1 67.7 351.5 C66.1 350.7 64.4 350.3 62.6 350.2 C64.6 353.1 67.4 355.4 70.5 356.9 C70.3 353.9 70.3 350.8 70.6 347.8 M55.9 226.6 C57.4 230.0 62.9 230.4 64.8 227.2 C61.4 224.6 57.2 223.0 53.0 222.8 C53.1 224.3 54.0 225.8 55.4 226.5 M281.4 27.4 C277.1 24.8 272.1 23.4 267.1 23.2 C266.5 23.2 265.7 23.4 265.8 24.0 C270.6 26.7 276.3 29.5 281.4 27.4 M24.2 235.0 C22.3 233.4 19.9 232.4 17.5 232.2 C20.2 235.2 22.5 238.4 24.5 241.8 C25.2 240.7 26.0 239.5 26.7 238.4 C25.9 237.2 25.1 236.0 24.3 234.8 M143.1 40.1 C140.8 38.2 136.9 39.3 135.8 42.0 C139.0 42.9 142.4 43.3 145.8 43.0 C146.2 41.5 144.7 40.1 143.3 40.0 M80.3 358.8 C79.8 355.8 79.4 352.7 78.9 349.6 C78.8 348.9 78.6 348.2 78.0 348.0 C77.3 347.9 77.0 349.2 77.7 349.0 C75.5 351.4 75.8 355.7 78.3 357.7 C78.2 358.7 79.5 359.5 80.3 358.8 M56.7 272.4 C55.5 271.6 53.8 271.7 52.6 272.6 C56.0 274.0 59.1 276.1 61.7 278.7 C61.4 276.9 61.1 275.1 60.7 273.4 C59.4 273.0 58.1 272.7 56.7 272.4 M21.8 264.4 C22.6 265.9 23.3 267.5 24.0 269.0 C24.5 268.2 25.0 267.3 25.5 266.5 C24.0 263.8 23.2 260.7 23.3 257.7 C21.2 258.8 21.4 261.9 21.9 264.3 M49.7 271.0 C49.1 268.0 45.4 267.0 42.3 266.6 C41.1 266.4 39.8 266.2 38.5 266.1 C41.9 268.4 45.7 270.1 49.7 271.0 M192.9 422.2 C189.1 421.6 185.4 420.9 181.7 420.3 C180.3 420.1 178.9 419.8 177.7 420.3 C182.2 422.9 187.8 423.6 192.9 422.2 M307.5 429.2 C308.1 428.7 308.8 428.1 309.5 427.6 C309.7 426.4 307.9 425.7 306.9 426.3 C305.9 427.0 305.5 428.3 305.3 429.5 C305.1 430.7 305.0 432.0 305.7 433.0 C306.3 434.0 308.0 434.4 308.7 433.4 C308.2 431.9 307.6 430.4 307.0 429.0 M335.7 398.4 C336.0 399.5 335.6 400.8 334.7 401.5 C336.6 402.7 337.9 404.8 338.3 407.1 C339.8 403.9 338.8 399.6 336.0 397.4 M314.8 420.4 C316.0 420.9 317.0 421.9 317.5 423.1 C318.9 421.7 319.6 419.1 318.1 417.8 C316.7 416.4 313.6 418.8 315.1 420.2 M247.0 386.3 C247.4 387.5 247.8 388.7 248.2 389.9 C250.6 387.2 251.4 383.2 250.2 379.8 C250.1 382.4 248.8 384.9 246.7 386.4 M58.8 341.4 C58.5 342.3 60.1 342.9 60.4 342.0 C60.7 341.2 59.2 340.6 58.8 341.4 " fill="#000000" stroke="none"/> <path d="M274.6 295.8 C274.8 295.2 274.3 296.3 274.6 295.8 " fill="#000000" stroke="none"/> <path d="M275.6 296.8 C275.3 297.3 274.4 296.7 274.7 296.2 C275.0 295.7 276.0 296.3 275.7 296.8 " fill="#000000" stroke="none"/> <path d="M250.7 353.4 C251.0 354.7 250.4 356.2 249.2 356.8 C248.8 355.4 247.2 354.4 245.7 354.7 C245.6 352.2 249.8 351.0 250.9 353.3 " fill="#000000" stroke="none"/> <path d="M259.4 269.4 C259.5 271.0 259.1 272.6 258.3 273.9 C256.7 271.7 256.2 268.6 257.2 266.0 C258.2 267.0 259.2 268.0 260.2 269.0 " fill="#000000" stroke="none"/> <path d="M262.1 242.8 C261.2 244.0 260.6 245.4 260.3 246.9 C259.1 244.4 259.4 241.2 261.0 238.9 C261.8 239.3 262.7 239.8 263.1 240.6 C263.5 241.5 263.1 242.7 262.2 242.8 " fill="#000000" stroke="none"/> <path d="M396.6 301.1 C397.4 301.6 398.1 302.2 398.9 302.8 C397.9 303.3 397.9 304.9 398.7 305.5 C397.5 306.2 395.8 306.1 394.6 305.3 C395.9 304.1 394.7 302.0 393.5 300.7 C394.1 299.6 396.0 299.8 396.4 301.0 " fill="#000000" stroke="none"/> <path d="M280.7 286.0 C281.5 286.9 281.9 288.2 281.7 289.4 C280.9 289.9 280.0 290.4 279.2 290.8 C277.5 289.5 276.3 287.5 275.8 285.4 C276.4 284.6 277.3 284.0 278.3 283.9 C278.4 285.1 279.6 286.1 280.7 285.9 " fill="#000000" stroke="none"/> <path d="M263.7 250.4 C264.9 250.0 265.9 249.0 266.3 247.8 C267.1 249.0 267.8 250.1 268.6 251.3 C267.6 252.8 266.9 254.6 266.8 256.4 C266.0 254.3 265.2 252.3 264.4 250.2 " fill="#000000" stroke="none"/> <path d="M275.8 296.9 C276.6 298.6 277.9 300.2 279.5 301.4 C279.1 302.6 278.6 303.7 278.2 304.9 C274.6 304.8 272.9 299.1 275.9 297.0 " fill="#000000" stroke="none"/> <path d="M281.3 274.8 C282.8 278.0 283.3 281.6 282.5 285.1 C282.4 285.8 281.3 286.3 280.7 285.8 C281.1 282.9 280.5 279.8 279.0 277.3 C280.1 276.9 281.0 275.9 281.3 274.8 " fill="#000000" stroke="none"/> <path d="M167.2 55.9 C166.8 57.1 166.1 58.1 165.2 58.9 C164.5 57.0 164.5 54.8 165.2 52.9 C167.0 53.0 168.9 53.3 170.4 54.4 C171.8 55.6 172.5 57.8 171.5 59.2 C170.6 60.5 168.4 58.3 169.7 57.4 C168.8 56.9 168.0 56.4 167.2 56.0 " fill="#000000" stroke="none"/> <path d="M241.3 235.2 C241.1 232.6 240.9 230.0 240.6 227.4 C239.5 226.3 237.2 227.4 237.3 228.9 C236.5 227.8 236.4 226.1 237.2 224.9 C239.8 223.9 242.0 227.0 243.2 229.6 C243.6 231.6 242.8 233.8 241.3 235.2 " fill="#000000" stroke="none"/> <path d="M170.5 209.1 C176.3 208.9 182.1 209.4 187.8 210.5 C182.4 213.4 175.3 212.8 170.5 209.1 " fill="#000000" stroke="none"/> <path d="M396.1 399.1 C398.7 401.4 397.8 406.4 394.6 407.5 C394.8 403.6 393.8 399.7 391.8 396.4 C393.2 396.4 393.3 394.2 392.8 392.8 C395.3 392.1 396.6 395.7 396.6 398.4 " fill="#000000" stroke="none"/> <path d="M343.3 388.6 C347.5 385.9 351.7 383.2 356.6 382.3 C359.7 381.6 363.1 381.8 366.2 382.7 C359.2 386.5 351.3 388.5 343.3 388.6 " fill="#000000" stroke="none"/> <path d="M251.7 253.8 C252.4 251.3 252.2 248.5 250.9 246.1 C252.4 246.7 253.3 244.4 253.3 242.8 C253.3 240.9 253.3 239.0 253.3 237.2 C254.5 236.6 255.3 238.5 255.3 239.9 C255.3 245.6 255.3 251.3 255.3 257.0 C254.1 255.9 252.9 254.9 251.7 253.8 " fill="#000000" stroke="none"/> <path d="M211.4 300.2 C205.1 297.8 198.8 295.2 192.6 292.3 C191.8 292.0 191.0 291.6 190.5 290.9 C189.6 290.0 189.4 288.5 189.9 287.4 C195.4 289.7 200.9 292.1 206.3 294.4 C208.9 295.5 212.0 297.4 211.4 300.2 " fill="#000000" stroke="none"/> <path d="M150.9 96.1 C143.8 92.8 137.2 88.5 131.3 83.4 C130.0 82.3 128.7 80.4 129.8 79.1 C136.8 84.8 143.8 90.5 150.9 96.1 " fill="#000000" stroke="none"/> <path d="M37.2 285.5 C35.4 281.1 33.2 276.8 30.8 272.8 C39.4 275.4 47.8 278.7 55.8 282.7 C55.5 284.6 52.7 284.3 50.8 283.8 C46.3 282.6 41.3 283.2 37.2 285.5 " fill="#000000" stroke="none"/> <path d="M264.1 263.0 C264.1 261.7 263.6 260.4 262.8 259.4 C263.8 258.1 265.6 257.5 267.2 258.0 C267.6 258.9 268.0 259.9 268.4 260.9 C268.6 258.9 268.8 256.9 269.0 255.0 C270.0 258.2 271.0 261.3 272.0 264.5 C272.6 263.4 273.9 262.7 275.2 262.9 C276.0 264.7 276.8 266.5 277.6 268.3 C276.1 269.6 274.6 270.9 273.1 272.1 C273.0 270.5 273.6 268.7 274.8 267.5 C274.0 267.0 273.1 266.5 272.2 266.0 C271.8 267.3 271.4 268.6 271.0 269.9 C271.5 266.2 267.9 262.5 264.1 263.0 " fill="#000000" stroke="none"/> <path d="M241.0 286.8 C241.1 288.7 240.5 290.6 239.3 292.0 C238.3 290.3 238.4 287.9 239.7 286.3 C216.4 278.2 192.6 271.5 168.5 266.5 C167.8 265.2 169.9 264.5 171.3 264.7 C195.0 267.9 218.3 274.0 240.5 282.6 C242.7 283.5 245.3 285.1 244.7 287.4 C243.5 287.2 242.3 287.0 241.0 286.8 " fill="#000000" stroke="none"/> </svg>